<svg xmlns="http://www.w3.org/2000/svg" viewBox="0 0 1938 1077" width="1938" height="1077">
	<defs>
		<linearGradient id="grd1" gradientUnits="userSpaceOnUse"  x1="-100881.629" y1="88963.902" x2="193900" y2="38686.759">
			<stop offset="0" stop-color="#43c3ff"  />
			<stop offset="100" stop-color="#2090ff"  />
		</linearGradient>
	</defs>
	<style>
		tspan { white-space:pre }
		.shp0 { fill: url(#grd1) } 
		.shp1 { fill: #f6f9ff } 
	</style>
	<g id="Page-1">
		<g id="Call-center-(login)">
			<g id="Group-3">
				<path id="Rectangle" class="shp0" d="M0 0L1939 0L1939 1080L0 1080L0 0Z" />
				<g id="Group-19-Copy" style="opacity: 0.063">
					<path id="Fill-1" fill-rule="evenodd" class="shp1" d="M2055.66 1487.8L1921.71 1215C1911.59 1219.87 1887.9 1224.45 1876.09 1225.33C1846.85 1227.53 1836.1 1221.16 1824.55 1220.9C1822.44 1224.9 1820.58 1229.94 1818.67 1234.18L1801 1276.93L1894.21 1482.9C1896.85 1488.46 1898.07 1491.12 1900.62 1497.12L1925.61 1551.72C1930.45 1561.61 1934.35 1561.71 1949.47 1567.63C1959.03 1571.38 1968.86 1575.44 1978.92 1579.42L2063.47 1614.16C2083.6 1622.26 2105.99 1628.11 2125.24 1610.58C2138.8 1598.23 2140.47 1589.07 2146 1572.41C2148.03 1566.31 2149.63 1562.74 2151.55 1557.31L2171.74 1497.91C2173.58 1492.73 2174.98 1489.78 2176.92 1483.93C2178.79 1478.26 2180.44 1473.37 2182.06 1468.44C2191.21 1440.69 2195.32 1444.88 2184.68 1423.43L2172.47 1395.85C2169.8 1390.44 2168.4 1386.81 2166.07 1381.62C2161.99 1372.55 2157.68 1364.26 2153.7 1354.2C2149.05 1342.47 2151.66 1345.61 2129.82 1338.31L2069.46 1317.67C2055.3 1312.94 1985.6 1287.8 1979.11 1287.25L2055.66 1487.8ZM2055.66 1487.8L2057.35 1490.67L2055.66 1487.8Z" />
					<path id="Fill-3" fill-rule="evenodd" class="shp1" d="M1427.59 889.98C1431.42 893.32 1446.74 899.76 1451.28 901.53C1459.81 904.85 1467.12 908.81 1475.84 912.22C1483.56 915.23 1491.79 919.82 1500.11 923.18C1508.82 926.69 1515.02 929.97 1523.6 933.46L1619.91 975.18C1618.31 981.18 1619.06 978.39 1613.61 980.63L1592.02 991.34C1582.48 996.11 1573.59 1000.53 1563.63 1005.53L1477.51 1047.16C1452.84 1059.49 1466.54 1057.4 1417.11 1040.01C1406.9 1036.43 1395.89 1032.08 1386.27 1028.27C1356.24 1016.37 1364.65 1020.86 1352.23 996.23C1349.68 991.19 1347.69 987.17 1345.38 982.52C1335.95 963.64 1326.89 944.07 1317.48 925.24C1311.71 913.69 1293.36 876.99 1291.14 866.4C1286.13 842.63 1298.11 821.85 1318.44 811.62C1338.18 801.69 1398.72 778.31 1424.66 766.59C1429.29 764.5 1434.2 762.44 1439.13 760.51C1444.15 758.54 1449.16 756.13 1454.58 753.93C1469.07 748.09 1470.23 751.85 1486.52 757.58L1517.35 769.33C1522.23 771.04 1527.18 772.88 1532.28 774.95C1542.67 779.17 1552.49 782.93 1563.22 786.59C1574.54 790.46 1584.54 794.97 1595.16 798.7L1734.88 851.33C1750.61 857.67 1752.01 855.65 1755.55 862.97L1777 914.95C1772.82 917.17 1770.29 918.84 1766.11 921.69L1746.54 937.35C1739.36 943.33 1715.21 974.89 1712.4 986.93L1427.59 889.98ZM1427.59 889.98C1425.97 888.48 1430.16 888.51 1423.19 888.51C1424.81 890.01 1420.62 889.98 1427.59 889.98ZM1423.19 888.51L1420.03 887.7L1423.19 888.51Z" />
					<path id="Fill-5" fill-rule="evenodd" class="shp1" d="M1672.65 628.46C1673.19 634.94 1729.57 776.51 1731.59 781.61L1751.03 831.41L1591.12 777.18C1578.88 773.14 1580.66 775.23 1577.45 768.71L1544.58 696.99C1538.11 681 1535.16 683.35 1541.58 664.31L1558.22 616.14C1560.3 609.88 1561.75 607.02 1563.79 601.09C1572.38 576.09 1586.75 524.55 1601.26 510.41C1608.87 503 1617.75 498.89 1631.13 497.35C1643.94 495.86 1652.04 499.36 1663.32 503.9L1785.25 553.24C1799.55 558.79 1801.83 559.52 1807.43 573.84C1811.21 583.53 1816.68 592.85 1821.01 602.98L1860.47 690.21C1863.01 695.23 1864.56 699.96 1867.36 705.43L1927.33 837.06C1929.38 843.17 1926.3 847.98 1924.05 853.47C1922.12 858.2 1920.23 863.57 1918.13 868.17C1915.96 872.96 1914.11 877.37 1912.01 882.67C1910.36 886.84 1907.4 892.9 1906.3 897.59C1900.02 896.14 1889.37 893.65 1882.65 893.17C1874.25 892.56 1863.25 893.2 1854.53 893.16C1834.34 893.07 1814.35 901.41 1807.22 902L1689.39 661.81C1687.6 658.07 1687.27 656.21 1685.48 652.46L1672.65 628.46ZM1668.83 620.25C1668.83 620.25 1668.83 620.25 1668.83 620.25L1668.83 620.25ZM1668.66 620.08L1668.21 619.63C1668.06 619.78 1668.62 620.04 1668.65 620.07C1668.65 620.07 1668.65 620.08 1668.66 620.08ZM1668.83 620.25C1668.82 620.24 1668.7 620.11 1668.66 620.08L1668.83 620.25ZM1672.65 628.46L1670.95 625.59L1672.65 628.46Z" />
					<path id="Fill-7" fill-rule="evenodd" class="shp1" d="M2303.12 1229.64C2292.84 1228.78 2025.26 1133.24 2016.64 1132.53C2012.8 1139.8 2009.01 1146.94 2004.31 1154.01C1993.37 1170.42 1986.51 1177.25 1972.21 1189.55C1967.51 1193.6 1957.93 1201.57 1952 1203.15C1952.45 1208.64 1968.31 1245.14 1972.7 1255.99C1975.79 1263.64 1974.75 1259.83 1993.59 1267.43C1999.45 1269.79 2003.99 1271.63 2009.5 1273.57L2194.99 1343.81C2206.06 1348.13 2215.05 1350.98 2226.14 1355.28C2266.47 1370.97 2257.83 1372.21 2289.43 1358.64C2295.04 1356.23 2298.27 1354.87 2303.98 1352.62L2379.5 1320.85C2404.83 1309.41 2446.78 1299.16 2437.75 1252.24C2435.89 1242.61 2402.64 1175.93 2397.14 1164.89L2383.42 1135.96C2376.09 1121.42 2369.13 1101.3 2359.19 1096.97L2312.39 1079.1C2304.55 1075.92 2272.22 1061.99 2265.91 1064.24C2244.55 1071.85 2151.68 1122.45 2121.53 1134.59C2116.22 1136.74 2110.66 1138.83 2107.73 1142.83L2156.79 1164.31C2165.74 1167.92 2173.05 1171.53 2181.17 1175.21C2184.96 1176.92 2189.33 1178.79 2193.53 1180.49C2199 1182.72 2200.79 1183.89 2205.68 1185.97L2291.36 1223.75C2297.3 1226.73 2299.24 1226.26 2303.12 1229.64ZM2303.12 1229.64L2306.27 1230.45L2303.12 1229.64Z" />
					<path id="Fill-9" fill-rule="evenodd" class="shp1" d="M1701.82 1483.19C1703.45 1479.01 1705.66 1475.25 1707.3 1471.06L1780.96 1304C1785.31 1307.17 1793.59 1326.29 1796.63 1332.37C1801.65 1342.39 1805.91 1350.65 1810.87 1360.7L1859.82 1461.59C1861.75 1468.66 1847.39 1499.84 1844.33 1508.13L1832.84 1539.21C1825.58 1557.06 1827.81 1558.76 1815.73 1564.67L1758.43 1592.55C1748.87 1597.32 1739.65 1602.63 1730.01 1606.72C1696.89 1620.74 1666.7 1646.32 1636.65 1627.11C1616.41 1614.18 1613.91 1598.87 1603.65 1574.97C1601.24 1569.35 1599.38 1565.23 1597.11 1559.49L1571.83 1499.63C1569.34 1494.31 1568.18 1490.68 1565.86 1485.05C1563.69 1479.75 1561.31 1474.54 1559.11 1469.8C1557.16 1465.62 1554.78 1459.66 1556.72 1452.76L1580.24 1391.13C1596.32 1344.09 1621.72 1284.8 1638.65 1236.71L1650.4 1205.9C1662.98 1170.12 1659.36 1172.02 1674.98 1165.88L1705.01 1153.32C1710.41 1151.16 1714.73 1149.4 1719.25 1147L1733.93 1167.55C1738.68 1174.03 1744.6 1178.91 1750.46 1184.8C1762.64 1197.05 1777.02 1204.04 1791.25 1211.56C1790.55 1219.84 1736.47 1373.47 1731.2 1389.28C1726.78 1402.52 1696.41 1486.81 1695.75 1494.74L1701.82 1483.19ZM1692.81 1502.07C1694.07 1500.62 1693.33 1503.38 1695.2 1498.59C1696.14 1496.17 1695.55 1497.11 1695.75 1494.74C1694.48 1496.19 1695.23 1493.43 1693.35 1498.22C1692.41 1500.64 1693 1499.7 1692.81 1502.07ZM1692.81 1502.07L1692 1505.23L1692.81 1502.07Z" />
					<path id="Fill-11" fill-rule="evenodd" class="shp1" d="M1437.84 1249.96C1438.11 1249.73 1438.5 1249.01 1438.63 1249.27L1470.75 1232.68C1476.83 1229.6 1482.24 1227.66 1487.95 1224.78C1493.59 1221.93 1498.59 1219.45 1504.65 1216.39C1527.73 1204.79 1549.82 1194.42 1572.92 1182.81C1595.7 1171.36 1617.47 1161.18 1640.23 1149.74L1709 1116.65C1701.89 1085.99 1693.29 1069.09 1701.26 1030.37C1702.35 1025.08 1703.11 1023.29 1703.11 1017.41C1690.29 1014.41 1652.66 992.2 1642.65 996.57L1613.41 1010.21C1604.02 1013.88 1594.08 1019.57 1583.93 1023.54C1575.16 1026.97 1564.58 1032.68 1555.74 1036.67L1453.07 1083.09C1447.81 1085.78 1444.02 1086.87 1438.8 1089.47C1424.85 1096.43 1372.62 1118.16 1366.67 1123.61C1360.82 1128.97 1327.95 1215.01 1322.45 1228.77C1318.14 1239.53 1314.46 1248.4 1310.08 1259.3C1300.69 1282.67 1296.13 1298.65 1315.49 1322.57C1317.84 1325.47 1323.42 1329.45 1326.99 1331.75C1334.2 1336.39 1421.59 1366.21 1436.56 1371.22C1447.71 1374.96 1456.66 1378.46 1468.24 1382.34C1487.79 1388.91 1488.97 1386.97 1515.42 1373.85L1573.47 1347.77C1581.35 1343.86 1579.38 1342.99 1582.45 1334.58C1583.82 1330.83 1636.27 1180.64 1636.79 1174.42C1631.3 1174.87 1616.91 1181.18 1611.74 1183.31L1575.48 1197.23C1570.97 1198.99 1566.74 1200.96 1562.92 1202.38C1546.5 1208.45 1445.05 1249.35 1437.84 1249.96ZM1437.84 1249.96L1434.89 1251.44L1437.84 1249.96ZM1434.89 1251.44L1432.02 1253.14L1434.89 1251.44Z" />
					<path id="Fill-13" fill-rule="evenodd" class="shp1" d="M2296.04 868.14C2291.86 871.76 2234.7 898.75 2228.15 902.02L2057.44 985.02C2045.54 990.96 2034.3 996.22 2023 1002.2C2024.64 1009.22 2027.05 1016.87 2028.92 1024.28L2033.28 1060.96C2032.71 1068.21 2030.24 1093.57 2027.42 1099.43C2031.48 1101.57 2036.73 1103.47 2040.92 1105.11C2046.2 1107.18 2050.31 1109.13 2055.46 1111.21C2059.99 1113.04 2064.3 1114.52 2069.22 1116.63C2074.02 1118.7 2079.39 1120.83 2083.51 1123C2087.81 1120.73 2092.39 1119.31 2096.8 1117.11L2124.36 1104.85C2129.93 1102.2 2132.57 1100.98 2138.59 1098.43L2360.04 998.31C2370.99 992.22 2382.39 957.07 2387.34 944.53L2404.39 902.63C2410.96 886.2 2432.1 841.8 2429.83 827.51C2427.77 814.57 2422.56 801.31 2414.14 794.45C2397.93 781.26 2355.91 768.9 2334.6 761.88C2319.01 756.74 2251.75 731.59 2244.96 733.06L2161.21 770.38C2155.14 773.33 2153.03 772.68 2150.76 779.11L2104.36 914C2101.34 923.05 2097.57 936.99 2093.84 944.74L2168.92 916.56C2177.17 913.53 2185.83 909.65 2194.41 906.64L2218.84 897.15C2228.76 893.12 2290.55 868.59 2296.04 868.14ZM2298.99 866.66L2301.87 864.97L2298.99 866.66ZM2298.99 866.66L2296.04 868.14L2298.99 866.66Z" />
					<path id="Fill-15" fill-rule="evenodd" class="shp1" d="M2059.65 485L2068.79 485C2082.62 486.21 2096.13 492.68 2102.71 501.74C2113.6 516.71 2135.97 576.56 2145.73 598.29C2149.38 606.43 2152.33 615.19 2155.98 623.3C2172.09 659.05 2172.63 655.75 2166.03 674.6L2141.92 738.65C2124.88 782.51 2106.71 835.55 2089.47 878.7L2070.16 929.92C2064.13 945.45 2066.02 947.58 2056.92 951.94L2008.06 972C2004.55 969.41 2003.25 965.94 2000.34 962.1L1976.23 934.83C1973.88 932.48 1973.82 932.54 1971.45 930.8C1965.87 926.68 1964.55 924.25 1956.33 919.51L1934.83 907.26C1937.24 902.22 1939.19 894.89 1941.24 888.69L1996.92 726.86C2001.28 714.03 2004.59 703.24 2008.95 690.41L2021.43 654.39C2024.13 646.24 2032.43 625.28 2032.96 618.89L1962.07 778.67C1959.05 786.14 1947.02 810.4 1946.55 816.04L1943.62 816.04C1941.51 806.93 1909.65 745.45 1904.55 734.64L1866 654.19C1869.92 646.76 1872.31 637.33 1875.79 628.73L1885.6 603.27C1901.54 556.35 1898.32 560.75 1920.2 549.74L2050.8 486.73C2053.64 485.85 2056.62 485.28 2059.65 485ZM2032.96 618.89L2033.77 615.72L2032.96 618.89Z" />
					<path id="Fill-17" fill-rule="evenodd" class="shp1" d="M1862.97 1179C1927.43 1179 1984 1126.71 1984 1064.04C1984 1011.19 1960.24 974.26 1915.13 951.52C1875.87 931.73 1831.42 938.74 1795.36 962.62C1791.21 965.36 1790.84 966.3 1787.1 969.11C1783.28 971.97 1782.36 972.56 1779.17 975.93C1775.97 979.31 1775.81 980.66 1772.57 984.08C1759.96 997.4 1747.06 1027.73 1746.35 1046.33C1745.73 1062.29 1743.83 1051.76 1746.04 1065.82C1748.83 1083.61 1744.55 1079.98 1755.81 1107.66C1772.1 1147.71 1819.37 1179 1862.97 1179Z" />
				</g>
				<g id="Group-19" style="opacity: 0.086">
					<path id="Fill-1" fill-rule="evenodd" class="shp1" d="M458.8 601.54L378.42 438C372.35 440.92 358.14 443.67 351.05 444.19C333.51 445.51 327.06 441.69 320.13 441.54C318.86 443.94 317.75 446.96 316.6 449.5L306 475.13L361.93 598.61C363.51 601.94 364.24 603.53 365.77 607.13L380.77 639.86C383.67 645.8 386.01 645.86 395.08 649.41C400.82 651.65 406.72 654.09 412.75 656.47L463.48 677.3C475.56 682.16 488.99 685.66 500.54 675.15C508.68 667.75 509.68 662.26 513 652.27C514.22 648.62 515.18 646.47 516.33 643.22L528.44 607.61C529.55 604.5 530.39 602.73 531.55 599.22C532.68 595.82 533.67 592.89 534.64 589.94C540.13 573.3 542.59 575.82 536.21 562.95L528.88 546.42C527.28 543.18 526.44 541 525.04 537.89C522.6 532.45 520.01 527.48 517.62 521.45C514.83 514.42 516.4 516.3 503.29 511.93L467.08 499.55C458.58 496.71 416.76 481.64 412.87 481.32L458.8 601.54ZM458.8 601.54L459.81 603.27L458.8 601.54Z" />
					<path id="Fill-3" fill-rule="evenodd" class="shp1" d="M82.78 243.66C85.08 245.67 94.3 249.55 97.03 250.62C102.17 252.62 106.57 255 111.81 257.05C116.45 258.86 121.4 261.62 126.41 263.65C131.65 265.76 135.38 267.74 140.55 269.84L198.49 294.95C197.53 298.56 197.97 296.88 194.7 298.23L181.71 304.68C175.97 307.55 170.62 310.21 164.63 313.22L112.81 338.28C97.97 345.7 106.22 344.45 76.48 333.98C70.33 331.82 63.71 329.2 57.92 326.91C39.85 319.75 44.91 322.45 37.44 307.62C35.9 304.59 34.71 302.17 33.32 299.37C27.64 288 22.19 276.22 16.53 264.89C13.06 257.94 2.02 235.84 0.68 229.47C-2.33 215.16 4.88 202.65 17.11 196.49C28.99 190.52 65.41 176.44 81.02 169.39C83.8 168.13 86.75 166.88 89.72 165.72C92.74 164.54 95.76 163.09 99.02 161.77C107.74 158.25 108.44 160.51 118.23 163.96L136.78 171.03C139.72 172.06 142.7 173.17 145.77 174.42C152.01 176.96 157.92 179.22 164.38 181.43C171.19 183.75 177.21 186.47 183.6 188.71L267.66 220.4C277.12 224.21 277.97 222.99 280.09 227.4L293 258.7C290.49 260.03 288.96 261.04 286.45 262.75L274.67 272.18C270.35 275.78 255.83 294.77 254.14 302.02L82.78 243.66ZM82.78 243.66C81.8 242.76 84.33 242.78 80.13 242.78C81.11 243.68 78.58 243.66 82.78 243.66ZM80.13 242.78L78.23 242.29L80.13 242.78Z" />
					<path id="Fill-5" fill-rule="evenodd" class="shp1" d="M229.44 85.87C229.77 89.77 263.45 174.71 264.66 177.77L276.27 207.64L180.74 175.11C173.42 172.69 174.49 173.94 172.57 170.03L152.93 126.99C149.07 117.4 147.31 118.81 151.14 107.39L161.08 78.48C162.33 74.73 163.19 73.01 164.41 69.45C169.54 54.45 178.13 23.53 186.8 15.05C191.34 10.6 196.64 8.13 204.64 7.21C212.29 6.32 217.13 8.42 223.87 11.14L296.72 40.75C305.26 44.07 306.62 44.51 309.97 53.1C312.23 58.92 315.5 64.51 318.08 70.59L341.65 122.93C343.18 125.94 344.1 128.78 345.77 132.06L381.6 211.03C382.82 214.7 380.98 217.59 379.64 220.88C378.49 223.72 377.36 226.94 376.1 229.7C374.81 232.58 373.7 235.22 372.45 238.4C371.46 240.9 369.7 244.54 369.04 247.35C365.29 246.48 358.92 244.99 354.91 244.7C349.89 244.33 343.32 244.72 338.11 244.69C326.04 244.64 314.1 249.64 309.84 250L239.45 105.89C238.37 103.64 238.18 102.52 237.11 100.27L229.44 85.87ZM227.16 80.95C227.16 80.95 227.16 80.95 227.16 80.95L227.16 80.95ZM227.06 80.85L226.79 80.58C226.7 80.67 227.04 80.83 227.05 80.84C227.06 80.84 227.06 80.85 227.06 80.85ZM227.16 80.95C227.16 80.94 227.08 80.87 227.06 80.85L227.16 80.95ZM229.44 85.87L228.43 84.15L229.44 85.87Z" />
					<path id="Fill-7" fill-rule="evenodd" class="shp1" d="M607.25 445.71C601.07 445.19 440.08 387.68 434.89 387.25C432.58 391.63 430.3 395.93 427.47 400.19C420.89 410.06 416.76 414.17 408.16 421.58C405.33 424.01 399.56 428.81 396 429.77C396.27 433.07 405.81 455.04 408.45 461.57C410.32 466.18 409.69 463.89 421.02 468.46C424.55 469.88 427.28 470.99 430.59 472.16L542.19 514.44C548.86 517.04 554.26 518.75 560.93 521.34C585.2 530.79 580 531.53 599.01 523.37C602.39 521.92 604.33 521.1 607.77 519.74L653.2 500.62C668.44 493.73 693.68 487.56 688.25 459.31C687.13 453.52 667.13 413.38 663.81 406.74L655.56 389.32C651.15 380.57 646.96 368.45 640.98 365.85L612.83 355.09C608.11 353.17 588.66 344.79 584.86 346.15C572.01 350.72 516.13 381.18 498 388.49C494.8 389.79 491.46 391.04 489.69 393.45L519.21 406.39C524.59 408.56 528.99 410.73 533.88 412.94C536.16 413.98 538.79 415.1 541.31 416.12C544.61 417.47 545.68 418.17 548.63 419.42L600.18 442.17C603.75 443.96 604.92 443.68 607.25 445.71ZM607.25 445.71L609.15 446.2L607.25 445.71Z" />
					<path id="Fill-9" fill-rule="evenodd" class="shp1" d="M247.78 598.27C248.76 595.75 250.09 593.49 251.08 590.97L295.42 490.46C298.04 492.37 303.02 503.87 304.85 507.53C307.87 513.56 310.44 518.53 313.42 524.57L342.89 585.27C344.05 589.52 335.41 608.28 333.57 613.27L326.65 631.97C322.28 642.71 323.62 643.73 316.35 647.29L281.86 664.06C276.1 666.93 270.55 670.13 264.75 672.59C244.81 681.02 226.64 696.41 208.55 684.85C196.36 677.07 194.86 667.87 188.69 653.49C187.23 650.1 186.11 647.63 184.75 644.17L169.53 608.16C168.03 604.96 167.33 602.77 165.94 599.39C164.63 596.2 163.2 593.06 161.87 590.21C160.7 587.69 159.26 584.11 160.44 579.96L174.59 542.88C184.27 514.58 199.56 478.91 209.75 449.97L216.83 431.44C224.4 409.91 222.22 411.05 231.62 407.36L249.7 399.8C252.95 398.5 255.55 397.44 258.27 396L267.11 408.37C269.97 412.26 273.53 415.2 277.06 418.74C284.39 426.11 293.05 430.32 301.61 434.85C301.2 439.82 268.64 532.25 265.46 541.77C262.8 549.73 244.52 600.44 244.12 605.21L247.78 598.27ZM242.35 609.63C243.12 608.75 242.67 610.41 243.8 607.53C244.36 606.07 244.01 606.64 244.12 605.21C243.36 606.09 243.81 604.43 242.68 607.31C242.11 608.77 242.47 608.2 242.35 609.63ZM242.35 609.63L241.87 611.53L242.35 609.63Z" />
					<path id="Fill-11" fill-rule="evenodd" class="shp1" d="M88.44 458.72C88.6 458.59 88.84 458.16 88.91 458.31L108.17 448.4C111.81 446.56 115.06 445.4 118.48 443.68C121.86 441.98 124.86 440.49 128.49 438.67C142.33 431.74 155.57 425.54 169.42 418.6C183.07 411.76 196.13 405.68 209.77 398.85L251 379.08C246.74 360.76 241.58 350.67 246.36 327.53C247.01 324.38 247.47 323.3 247.47 319.79C239.78 318 217.22 304.73 211.22 307.34L193.69 315.49C188.06 317.68 182.11 321.08 176.02 323.45C170.76 325.5 164.42 328.91 159.12 331.3L97.57 359.03C94.41 360.64 92.14 361.29 89.01 362.84C80.65 367 49.34 379.99 45.77 383.24C42.26 386.44 22.56 437.85 19.26 446.06C16.68 452.5 14.47 457.79 11.84 464.31C6.21 478.27 3.48 487.81 15.09 502.11C16.5 503.84 19.84 506.22 21.98 507.59C26.31 510.36 78.69 528.18 87.67 531.17C94.35 533.41 99.72 535.49 106.66 537.81C118.38 541.74 119.09 540.58 134.95 532.74L169.75 517.16C174.48 514.83 173.29 514.3 175.13 509.28C175.95 507.04 207.4 417.31 207.71 413.59C204.42 413.87 195.79 417.63 192.69 418.9L170.96 427.22C168.25 428.27 165.71 429.45 163.42 430.3C153.58 433.93 92.76 458.36 88.44 458.72ZM88.44 458.72L86.67 459.61L88.44 458.72ZM86.67 459.61L84.95 460.63L86.67 459.61Z" />
					<path id="Fill-13" fill-rule="evenodd" class="shp1" d="M602.69 230.08C600.19 232.25 565.91 248.45 561.99 250.41L459.65 300.21C452.51 303.77 445.78 306.93 439 310.52C439.98 314.73 441.43 319.32 442.55 323.77L445.16 345.78C444.82 350.13 443.34 365.34 441.65 368.86C444.08 370.14 447.23 371.28 449.74 372.26C452.91 373.51 455.37 374.68 458.46 375.93C461.18 377.03 463.76 377.91 466.71 379.18C469.59 380.42 472.81 381.7 475.27 383C477.85 381.64 480.6 380.79 483.24 379.46L499.77 372.11C503.11 370.52 504.69 369.79 508.3 368.26L641.06 308.19C647.62 304.53 654.45 283.44 657.43 275.92L667.65 250.78C671.58 240.92 684.26 214.28 682.9 205.71C681.66 197.94 678.54 189.98 673.49 185.87C663.77 177.96 638.58 170.54 625.81 166.33C616.46 163.24 576.14 148.16 572.07 149.04L521.86 171.43C518.22 173.2 516.95 172.81 515.59 176.66L487.78 257.6C485.97 263.03 483.71 271.39 481.47 276.05L526.48 259.14C531.42 257.32 536.62 254.99 541.76 253.19L556.41 247.49C562.36 245.07 599.4 230.35 602.69 230.08ZM604.46 229.2L606.18 228.18L604.46 229.2ZM604.46 229.2L602.69 230.08L604.46 229.2Z" />
					<path id="Fill-15" fill-rule="evenodd" class="shp1" d="M461.57 0L467.08 0C475.4 0.72 483.53 4.61 487.49 10.03C494.05 19.01 507.51 54.9 513.39 67.93C515.59 72.81 517.37 78.06 519.56 82.92C529.26 104.36 529.58 102.38 525.61 113.68L511.1 152.09C500.84 178.38 489.9 210.19 479.53 236.06L467.9 266.77C464.27 276.08 465.4 277.36 459.93 279.97L430.52 292C428.4 290.45 427.62 288.36 425.87 286.06L411.36 269.71C409.94 268.31 409.9 268.34 408.48 267.3C405.12 264.83 404.32 263.37 399.38 260.52L386.44 253.18C387.88 250.16 389.06 245.76 390.29 242.05L423.81 145.02C426.44 137.33 428.43 130.85 431.05 123.16L438.56 101.56C440.19 96.68 445.19 84.11 445.51 80.28L402.83 176.08C401.01 180.56 393.77 195.1 393.49 198.49L391.73 198.49C390.46 193.03 371.28 156.16 368.21 149.68L345 101.45C347.36 96.99 348.8 91.34 350.9 86.18L356.8 70.91C366.39 42.78 364.46 45.42 377.63 38.82L456.24 1.04C457.96 0.51 459.75 0.17 461.57 0ZM445.51 80.28L445.99 78.38L445.51 80.28Z" />
					<path id="Fill-17" fill-rule="evenodd" class="shp1" d="M343.58 416C382.15 416 416 384.72 416 347.21C416 315.6 401.78 293.5 374.79 279.89C351.3 268.05 324.71 272.25 303.13 286.53C300.65 288.18 300.43 288.74 298.19 290.42C295.91 292.13 295.35 292.48 293.44 294.5C291.53 296.52 291.44 297.33 289.5 299.38C281.95 307.35 274.23 325.49 273.81 336.62C273.44 346.17 272.3 339.87 273.62 348.28C275.29 358.92 272.73 356.75 279.47 373.32C289.22 397.28 317.5 416 343.58 416Z" />
				</g>
			</g>
		</g>
	</g>
</svg>