<?xml version="1.0" encoding="UTF-8"?>
<svg width="1920px" height="1080px" viewBox="0 0 1920 1080" version="1.1" xmlns="http://www.w3.org/2000/svg" xmlns:xlink="http://www.w3.org/1999/xlink">
    <title>Call center (login) Copy</title>
    <g id="Call-center-(login)-Copy" stroke="none" stroke-width="1" fill="none" fill-rule="evenodd">
        <rect fill="#FFFFFF" x="0" y="0" width="1920" height="1080"></rect>
        <g id="Group-3" transform="translate(-201.000000, -257.000000)">
            <rect id="Rectangle" fill="#F5F9FF" x="201" y="257" width="1939" height="1080"></rect>
            <g id="Group-19-Copy" transform="translate(1290.000000, 485.000000)" fill="#EEF6FF">
                <path d="M765.658846,1002.7981 L631.705349,730 C621.591369,734.866128 597.904171,739.449628 586.085106,740.328234 C556.847179,742.527822 546.095326,736.162534 534.552263,735.904481 C532.43624,739.904291 530.577819,744.942454 528.670331,749.17574 L511,791.932541 L604.209308,997.901247 C606.846671,1003.45551 608.073351,1006.11591 610.624847,1012.1187 L635.612326,1066.71518 C640.45158,1076.61333 644.352423,1076.71163 659.465126,1082.63455 C669.033233,1086.38245 678.858942,1090.43756 688.917721,1094.41893 L773.466666,1129.15768 C793.602625,1137.26175 815.989541,1143.11094 835.236156,1125.57567 C848.797108,1113.23217 850.471527,1104.07132 856.003855,1087.40851 C858.027878,1081.31357 859.628696,1077.7377 861.554584,1072.31246 L881.739609,1012.91129 C883.57963,1007.72567 884.984179,1004.78264 886.916201,998.927312 C888.793022,993.256307 890.442907,988.365602 892.062125,983.438033 C901.21316,955.685128 905.316406,959.881549 894.681087,938.426347 L882.469484,910.851621 C879.801454,905.438667 878.403039,901.813648 876.072346,896.621882 C871.993634,887.553189 867.681852,879.258652 863.695141,869.200758 C859.052156,857.465525 861.658852,860.605161 839.817808,853.312112 L779.459,832.667932 C765.296975,827.936974 695.603129,802.795312 689.11399,802.254631 L765.658846,1002.7981 Z M765.658846,1002.7981 L767.351665,1005.67354 L765.658846,1002.7981 Z" id="Fill-1"></path>
                <path d="M137.589818,404.981488 L422.40316,501.930696 C425.21092,489.885491 449.36133,458.334155 456.536717,452.354396 L476.111517,436.691958 C480.289514,433.839791 482.822004,432.168886 487,429.953254 L465.547242,377.971585 C462.011544,370.64531 460.610723,372.665085 444.883594,366.330336 L305.162341,313.699892 C294.536895,309.966368 284.535395,305.461657 273.218714,301.593482 C262.489277,297.927284 252.665174,294.169278 242.284413,289.952232 C237.182731,287.877372 232.227859,286.041213 227.346393,284.327464 L196.516083,272.576045 C180.232296,266.853349 179.070043,263.089222 164.584691,268.934329 C159.164918,271.125479 154.148875,273.543089 149.126716,275.507779 C144.196313,277.435746 139.290378,279.504486 134.659715,281.591587 C108.723105,293.306283 48.1819182,316.692831 28.4419557,326.620332 C8.10863203,336.847739 -3.8686988,357.633062 1.13510948,381.399083 C3.36174299,391.987601 21.7131181,428.692424 27.481567,440.235745 C36.8897053,459.068619 45.9491675,478.642076 55.3756572,497.523914 C57.6940476,502.169397 59.6759961,506.190585 62.2268373,511.233903 C74.6507182,535.856798 66.2396713,531.370449 96.2747552,543.268761 C105.890876,547.075731 116.895584,551.427428 127.111183,555.014059 C176.54367,572.402488 162.84131,574.489589 187.505558,562.156719 L273.628561,520.530989 C283.587241,515.530515 292.475424,511.105372 302.018139,506.337478 L323.61159,495.63267 C329.055831,493.392555 328.309542,496.177397 329.912229,490.179277 L233.604212,448.461739 C225.021886,444.973036 218.819121,441.686311 210.114452,438.179247 C201.789045,434.819076 193.561512,430.228677 185.835583,427.217376 C177.124797,423.814361 169.814832,419.854378 161.281443,416.53093 C156.736419,414.762096 141.419138,408.317177 137.589818,404.981488 L137.589818,404.981488 Z M133.185488,403.512561 L130.029051,402.70465 L133.185488,403.512561 Z M137.589818,404.981488 C130.616295,404.981488 134.806526,405.012091 133.185488,403.512561 C140.15901,403.512561 135.96878,403.481958 137.589818,404.981488 L137.589818,404.981488 Z" id="Fill-3"></path>
                <path d="M382.648606,143.455534 L395.483844,167.45808 C397.270795,171.208286 397.597376,173.065006 399.390489,176.809085 L517.218347,417 C524.353828,416.405605 544.336871,408.065685 564.529418,408.157602 C573.254669,408.200496 584.247499,407.557078 592.652331,408.169857 C599.368803,408.653952 610.022729,411.135707 616.301705,412.587992 C617.404685,407.900234 620.362397,401.839852 622.013787,397.672956 C624.114995,392.372419 625.957403,387.960412 628.132554,383.174609 C630.2276,378.57264 632.119303,373.19857 634.05414,368.467917 C636.297072,362.983547 639.378022,358.173233 637.326109,352.0577 L577.358495,220.426682 C574.560992,214.960694 573.014355,210.230042 570.46949,205.211383 L531.00868,117.982318 C526.683026,107.846956 521.211259,98.5327181 517.427852,88.8385572 C511.826685,74.5179161 509.552943,73.7887093 495.251173,68.2430609 L373.319489,18.8959824 C362.037049,14.3614191 353.940312,10.862452 341.129721,12.3453767 C327.746074,13.8895794 318.872937,17.9951975 311.26299,25.4098212 C296.751715,39.5527565 282.376001,91.0874554 273.786312,116.088831 C271.752885,122.02053 270.304838,124.882208 268.215954,131.138679 L251.584985,179.309223 C245.164285,198.354388 248.109673,196.001318 254.579669,211.988717 L287.447245,283.714478 C290.663757,290.234445 288.876806,288.144869 301.120502,292.183082 L461.027978,346.40788 L441.593344,296.613473 C439.572241,291.509025 383.190853,149.944861 382.648606,143.455534 L382.648606,143.455534 Z M378.212037,134.631519 L378.828227,135.250425 C378.822066,135.244297 378.661856,135.078847 378.649532,135.072719 C378.624885,135.04208 378.064152,134.778585 378.212037,134.631519 L378.212037,134.631519 Z M382.648606,143.455534 L380.947921,140.587729 L382.648606,143.455534 Z" id="Fill-5"></path>
                <path d="M1013.11628,744.638333 C1002.84478,743.780069 735.259407,648.243008 726.640653,647.531875 C722.796493,654.802598 719.013546,661.944582 714.306286,669.013001 C703.36757,685.418107 696.505622,692.247437 682.206325,704.551267 C677.511308,708.597369 667.925393,716.566965 662,718.154754 C662.452974,723.641514 678.307074,760.136132 682.696027,770.987043 C685.793392,778.637855 684.746654,774.83084 703.594057,782.426478 C709.452116,784.792835 713.98798,786.631972 719.497127,788.569197 L904.990093,858.805857 C916.063477,863.13396 925.049508,865.978493 936.135135,870.282075 C976.468209,885.969917 967.831091,887.20827 999.429108,873.641566 C1005.03619,871.232296 1008.27435,869.871334 1013.97938,867.615325 L1089.50365,835.853421 C1114.82737,824.407856 1156.78258,814.15773 1147.74758,767.235202 C1145.89283,757.610383 1112.64207,690.929389 1107.13905,679.894564 L1093.42127,650.964932 C1086.09411,636.423485 1079.1281,616.29719 1069.18715,611.969087 L1022.39001,594.104932 C1014.55478,590.917093 982.222207,576.994823 975.905052,579.244701 C954.554048,586.846469 861.675958,637.447271 831.534805,649.585578 C826.215418,651.737369 820.657301,653.827856 817.725211,657.831045 L866.793343,679.31217 C875.736524,682.91688 883.045325,686.52772 891.174377,690.205995 C894.957325,691.922523 899.334035,693.792313 903.527108,695.49045 C908.999527,697.721936 910.79306,698.886724 915.683958,700.971079 L1001.36343,738.753093 C1007.30107,741.732496 1009.24151,741.260451 1013.11628,744.638333 L1013.11628,744.638333 Z M1013.11628,744.638333 L1016.27485,745.447554 L1013.11628,744.638333 Z" id="Fill-7"></path>
                <path d="M405.74568,1009.7371 C406.40684,1001.80786 436.777356,917.52074 441.197334,904.284966 C446.46825,888.469286 500.554827,734.836494 501.246597,726.564899 C487.019409,719.039154 472.639175,712.045286 460.462808,699.799903 C454.604194,693.906468 448.684361,689.033992 443.933803,682.553659 L429.253598,662 C424.729548,664.3965 420.413641,666.157195 415.008045,668.315268 L384.980353,680.878554 C369.357382,687.016529 372.981519,685.121338 360.40111,720.897665 L348.647151,751.709813 C331.720226,799.798772 306.320655,859.087702 290.238546,906.125136 L266.724506,967.755545 C264.777757,974.663824 267.159158,980.618394 269.105907,984.800042 C271.309774,989.544135 273.685054,994.752855 275.864434,1000.05328 C278.178494,1005.68383 279.341646,1009.30915 281.833241,1014.63403 L307.110374,1074.49151 C309.381582,1080.23211 311.236504,1084.34651 313.654636,1089.97095 C323.908741,1113.87482 326.406457,1129.17696 346.651427,1142.10706 C376.703606,1161.31575 406.890467,1135.74289 440.009695,1121.71847 C449.645492,1117.63463 458.871126,1112.31587 468.427339,1107.54732 L525.734011,1079.66967 C537.806306,1073.76401 535.577952,1072.06445 542.844592,1054.20685 L554.329189,1023.12571 C557.390116,1014.83577 571.745863,983.656814 569.823601,976.589583 L520.867138,875.69814 C515.914558,865.653624 511.647626,857.394257 506.627706,847.368082 C503.585145,841.285128 495.308399,822.17426 490.961883,818.995229 L417.297618,986.059428 C415.663083,990.253303 413.453094,994.007006 411.824681,998.194768 L405.74568,1009.7371 Z M402.80719,1017.07332 C403.00309,1014.70128 402.40927,1015.64276 403.352035,1013.21569 C405.225323,1008.4288 404.478456,1011.19211 405.74568,1009.7371 C405.549781,1012.10914 406.143601,1011.16766 405.200835,1013.59473 C403.327548,1018.38162 404.074414,1015.6183 402.80719,1017.07332 L402.80719,1017.07332 Z M402.80719,1017.07332 L401.999106,1020.2279 L402.80719,1017.07332 Z" id="Fill-9"></path>
                <path d="M147.841187,764.958298 C148.105223,764.72995 148.504347,764.014047 148.633295,764.273253 L180.753579,747.677889 C186.826406,744.598273 192.242214,742.660399 197.94662,739.778273 C203.589621,736.927006 208.587884,734.446033 214.654571,731.391103 C237.730088,719.794714 259.823145,709.420297 282.923223,697.805394 C305.697862,686.357123 327.47162,676.180196 350.233978,664.738096 L419,631.652284 C411.88945,600.98573 403.292929,584.087958 411.256991,545.367499 C412.349977,540.084631 413.105243,538.288702 413.105243,532.413363 C400.290287,529.413978 362.66209,507.202481 352.653284,511.565784 L323.412834,525.211136 C314.018065,528.883223 304.082944,534.573414 293.93291,538.535565 C285.164459,541.966961 274.584598,547.675668 265.742463,551.674848 L163.069308,598.08509 C157.80701,600.775896 154.018401,601.868265 148.799085,604.472669 C134.84816,611.434206 82.6181586,633.16432 76.6681384,638.613821 C70.8163642,643.970748 37.9469546,730.014842 32.4451816,743.76511 C28.1407811,754.534508 24.4626984,763.403061 20.078473,774.302062 C10.6898447,797.673815 6.12754858,813.645851 25.4881405,837.573046 C27.8399028,840.473686 33.4153603,844.454352 36.9890566,846.750177 C44.2039934,851.38503 131.587623,881.212251 146.557849,886.223569 C157.708764,889.963543 166.661426,893.456655 178.236026,897.338575 C197.78697,903.905131 198.972062,901.967256 225.424783,888.85266 L283.469716,862.765414 C291.353954,858.864979 289.376754,857.988615 292.45308,849.576759 C293.816243,845.830613 346.273438,695.639171 346.789229,689.418224 C341.299737,689.87492 326.906706,696.18227 321.742653,698.305291 L285.483758,712.228364 C280.970585,713.987263 276.739869,715.955995 272.920558,717.375457 C256.495063,723.454458 155.049983,764.353484 147.841187,764.958298 L147.841187,764.958298 Z M147.841187,764.958298 L144.893808,766.439476 L147.841187,764.958298 Z M144.893808,766.439476 L142.020114,768.14283 L144.893808,766.439476 Z" id="Fill-11"></path>
                <path d="M1006.03797,383.135943 C1001.86237,386.757566 944.695292,413.747866 938.145922,417.019604 L767.444147,500.016158 C755.53844,505.958075 744.303043,511.224774 733,517.197383 C734.635805,524.219649 737.046465,531.874165 738.915956,539.277008 L743.276053,575.959754 C742.710285,583.209138 740.238129,608.572777 737.421593,614.428758 C741.480357,616.57104 746.732152,618.467788 750.920058,620.106726 C756.202601,622.175348 760.310562,624.127342 765.463962,626.214379 C769.990099,628.043605 774.300999,629.522946 779.220713,631.634537 C784.023583,633.703159 789.392221,635.827026 793.506332,638 C797.811082,635.728813 802.392565,634.310855 806.795709,632.107189 L834.358407,619.848916 C839.929983,617.203289 842.568179,615.975621 848.588679,613.428208 L1070.0373,513.311811 C1080.98982,507.222574 1092.3851,472.074414 1097.34172,459.533777 L1114.39467,417.6273 C1120.95634,401.201091 1142.10496,356.796308 1139.8296,342.51238 C1137.76947,329.566612 1132.56072,316.307788 1124.13571,309.451258 C1107.9314,296.259956 1065.91089,283.89733 1044.60238,276.875064 C1029.00689,271.73727 961.7544,246.594612 954.959045,248.061676 L871.207064,285.38281 C865.137367,288.329215 863.02804,287.684689 860.758822,294.105397 L814.35977,428.995514 C811.340295,438.049572 807.570564,451.989752 803.837731,459.74248 L878.924866,431.561342 C887.165386,428.528999 895.830233,424.649566 904.408984,421.641777 L928.841513,412.151897 C938.760887,408.119005 1000.55249,383.590181 1006.03797,383.135943 L1006.03797,383.135943 Z M1008.9898,381.66274 L1011.86784,379.968557 L1008.9898,381.66274 Z M1008.9898,381.66274 L1006.03797,383.135943 L1008.9898,381.66274 Z" id="Fill-13"></path>
                <path d="M769.652272,0 L778.793606,0 C792.61545,1.20769134 806.132176,7.68140735 812.71052,16.7360272 C823.597129,31.7126259 845.968378,91.5638469 855.726051,113.29003 C859.381364,121.425088 862.334906,130.185448 865.984117,138.295984 C882.088243,174.048552 882.631353,170.75039 876.034703,189.595279 L851.918179,253.651964 C834.880391,297.508938 816.707565,350.54927 799.474502,393.695116 L780.160535,444.920846 C774.125302,460.449182 776.017033,462.582565 766.924517,466.935159 L718.062926,487 C714.547967,484.412966 713.254267,480.937022 710.343441,477.099383 L686.23302,449.825176 C683.877509,447.483359 683.816485,447.544663 681.44877,445.797495 C675.871213,441.683988 674.547001,439.250214 666.333226,434.505274 L644.834614,422.26284 C647.238943,417.21751 649.191698,409.885536 651.242091,403.687689 L706.920018,241.86318 C711.283205,229.032226 714.590684,218.236568 718.953871,205.405614 L731.427093,169.389439 C734.130438,161.24212 742.429647,140.282238 742.960552,133.888218 L672.069443,293.665169 C669.048776,301.144272 657.021025,325.396186 656.551144,331.036166 L653.622011,331.036166 C651.510595,321.932503 619.650177,260.450592 614.548604,249.642674 L576,169.193265 C579.917715,161.757075 582.30984,152.33463 585.794287,143.72753 L595.600778,118.267925 C611.540141,71.3518756 608.324198,75.7535121 630.201156,64.7432905 L760.797749,1.73490685 C763.641448,0.845996979 766.6194,0.27586858 769.652272,0 L769.652272,0 Z M742.960552,133.888218 L743.766064,130.724924 L742.960552,133.888218 Z" id="Fill-15"></path>
                <path d="M572.968858,694 C637.432701,694 694,641.713525 694,579.03608 C694,526.190753 670.236569,489.257366 625.126638,466.516372 C585.865317,446.729313 541.419582,453.742604 505.356238,477.619725 C501.205017,480.364857 500.84217,481.304466 497.096846,484.111011 C493.283873,486.966685 492.36138,487.556244 489.169553,490.933923 C485.971575,494.311602 485.811676,495.662674 482.570649,499.083342 C469.957089,512.40368 457.06063,542.729099 456.347235,561.3309 C455.73224,577.285828 453.831903,566.759752 456.039737,580.817039 C458.825668,598.608196 454.551448,594.978727 465.812018,622.663414 C482.103253,662.710408 529.371817,694 572.968858,694" id="Fill-17"></path>
            </g>
            <g id="Group-19" fill="#EEF6FF">
                <path d="M458.795307,601.544805 L378.423209,438 C372.354821,440.917286 358.142503,443.665133 351.051063,444.191865 C333.508307,445.510537 327.057195,441.694492 320.131358,441.539787 C318.861744,443.937708 317.746691,446.95813 316.602198,449.496021 L306,475.129091 L361.925585,598.609102 C363.508003,601.938933 364.244011,603.533863 365.774908,607.132585 L380.767395,639.863647 C383.670948,645.797671 386.011454,645.856606 395.079075,649.407444 C400.81994,651.654343 406.715365,654.085415 412.750633,656.472285 L463.48,677.298463 C475.561575,682.156923 488.993725,685.663559 500.541694,675.151017 C508.678265,667.750983 509.682916,662.258971 513.002313,652.269478 C514.216727,648.615504 515.177217,646.471741 516.33275,643.219262 L528.443766,607.607749 C529.547778,604.498925 530.390507,602.734556 531.54972,599.224236 C532.675813,595.82442 533.665744,592.8924 534.637275,589.93828 C540.127896,573.300175 542.589844,575.815965 536.208652,562.953387 L528.881691,546.422102 C527.280873,543.17699 526.441823,541.003759 525.043408,537.891251 C522.59618,532.454492 520.009111,527.481845 517.617085,521.452052 C514.831294,514.416678 516.395311,516.298917 503.290685,511.926672 L467.0754,499.550308 C458.578185,496.714058 416.761878,481.641415 412.868394,481.317273 L458.795307,601.544805 Z M458.795307,601.544805 L459.810999,603.268655 L458.795307,601.544805 Z" id="Fill-1"></path>
                <path d="M82.7799109,243.663198 L254.135782,302.02407 C255.82505,294.773174 270.354968,275.7801 274.671988,272.180443 L286.449024,262.752067 C288.962685,261.035137 290.486339,260.029296 293,258.695544 L280.093105,227.403948 C277.965878,222.993723 277.123084,224.209574 267.660971,220.396222 L183.598698,188.714079 C177.205976,186.466596 171.188647,183.754879 164.380048,181.426339 C157.92476,179.219385 152.01416,176.957164 145.768651,174.418613 C142.699261,173.169602 139.718199,172.064283 136.7813,171.032651 L118.232469,163.958606 C108.435447,160.513693 107.736186,158.247788 99.0211793,161.766389 C95.7604125,163.085404 92.7425471,164.540741 89.7210014,165.723433 C86.7546605,166.884018 83.8030409,168.129345 81.0170358,169.385725 C65.4124634,176.437664 28.9882998,190.51575 17.1118953,196.491845 C4.87849935,202.648474 -2.32757443,215.160692 0.682930344,229.467211 C2.02256817,235.84122 13.0635392,257.936558 16.5340845,264.885334 C22.1944223,276.222228 27.6449817,288.004934 33.3163605,299.371303 C34.7112032,302.167762 35.903628,304.588412 37.438323,307.624356 C44.9130604,322.446691 39.8526154,319.746027 57.9230047,326.908498 C63.7084735,329.200193 70.3293758,331.819801 76.4755164,333.978858 C106.216212,344.446234 97.9722871,345.702614 112.811352,338.278551 L164.626629,313.220957 C170.618196,310.210804 175.965707,307.546984 181.707012,304.676837 L194.698554,298.232824 C197.974042,296.884334 197.525043,298.560736 198.489288,294.950025 L140.546272,269.837165 C135.382777,267.737058 131.650929,265.758536 126.413829,263.647376 C121.404908,261.624641 116.454873,258.861342 111.806624,257.048618 C106.565843,255.000092 102.167856,252.616287 97.0338045,250.615658 C94.299324,249.550867 85.0837935,245.671195 82.7799109,243.663198 L82.7799109,243.663198 Z M80.1300778,242.778943 L78.2310308,242.292602 L80.1300778,242.778943 Z M82.7799109,243.663198 C78.5843419,243.663198 81.1053636,243.68162 80.1300778,242.778943 C84.3256468,242.778943 81.8046251,242.760521 82.7799109,243.663198 L82.7799109,243.663198 Z" id="Fill-3"></path>
                <path d="M607.246548,445.709918 C601.066777,445.193265 440.075988,387.682469 434.890578,387.254385 C432.577767,391.631169 430.301784,395.930456 427.469696,400.185458 C420.888497,410.0609 416.760056,414.171977 408.156988,421.578559 C405.332266,424.014206 399.56497,428.811693 396,429.7675 C396.272529,433.070385 405.811032,455.039185 408.451614,461.571147 C410.315121,466.176735 409.685359,463.885012 421.024761,468.457386 C424.54922,469.881871 427.278189,470.988983 430.592727,472.155142 L542.193218,514.435762 C548.855439,517.041167 554.261819,518.753501 560.931405,521.344144 C585.197506,530.787812 580.001047,531.533268 599.011763,523.366469 C602.385226,521.916152 604.333438,521.096888 607.765826,519.738831 L653.204458,500.619 C668.440283,493.729071 693.682331,487.558765 688.246489,459.312638 C687.130594,453.51875 667.125517,413.378547 663.814662,406.735872 L655.561462,389.320995 C651.153127,380.567427 646.962078,368.451927 640.981178,365.846523 L612.82602,355.092771 C608.112011,353.173777 588.659356,344.792936 584.858686,346.147303 C572.013011,350.723368 516.133584,381.183719 497.999379,388.490661 C494.799009,389.785982 491.455008,391.0444 489.690938,393.454214 L519.212422,406.385287 C524.593022,408.555227 528.990309,410.728858 533.881093,412.943082 C536.157076,413.976387 538.790292,415.101951 541.313024,416.124185 C544.605465,417.467481 545.684531,418.168653 548.627104,419.42338 L600.175534,442.167158 C603.747869,443.96068 604.915323,443.676521 607.246548,445.709918 L607.246548,445.709918 Z M607.246548,445.709918 L609.146883,446.197047 L607.246548,445.709918 Z" id="Fill-7"></path>
                <path d="M244.123222,605.213489 C244.521223,600.442921 262.803474,549.73219 265.464185,541.768984 C268.637138,532.253595 301.195833,439.821545 301.61226,434.845001 C293.047868,430.317191 284.391345,426.109382 277.061493,418.742036 C273.534761,415.196294 269.971178,412.264804 267.111467,408.365959 L258.27437,396 C255.551011,397.441837 252.952949,398.501146 249.698922,399.799535 L231.623041,407.358144 C222.218424,411.051013 224.400059,409.910784 216.826984,431.435351 L209.75141,449.973255 C199.561847,478.905627 184.271973,514.576379 174.590967,542.876108 L160.436134,579.955595 C159.264242,584.11191 160.697782,587.694434 161.869674,590.210292 C163.196344,593.064541 164.6262,596.19833 165.938129,599.387291 C167.331133,602.774872 168.03132,604.956018 169.531194,608.159692 L184.747364,644.172513 C186.114571,647.626301 187.231185,650.1017 188.686837,653.485603 C194.859538,667.867191 196.363098,677.073614 208.550037,684.852913 C226.640658,696.409678 244.812353,681.023953 264.749257,672.586265 C270.549754,670.129257 276.103342,666.929261 281.855931,664.0603 L316.35304,647.287911 C323.620244,643.734812 322.278833,642.712285 326.653159,631.968393 L333.566584,613.26865 C335.409182,608.281071 344.050964,589.522477 342.893812,585.270529 L313.42331,524.569928 C310.441987,518.526718 307.873406,513.55753 304.851547,507.525355 C303.020005,503.86559 298.037622,492.367676 295.421133,490.455035 L251.077184,590.967992 C250.093237,593.491207 248.762882,595.749595 247.78262,598.269131 L244.123222,605.213489 Z M242.354328,609.627276 C242.472255,608.200151 242.114791,608.766587 242.682311,607.30636 C243.80998,604.426364 243.360387,606.08889 244.123222,605.213489 C244.005296,606.640613 244.36276,606.074177 243.79524,607.534405 C242.66757,610.414401 243.117164,608.751875 242.354328,609.627276 L242.354328,609.627276 Z M242.354328,609.627276 L241.867883,611.525204 L242.354328,609.627276 Z" id="Fill-9"></path>
                <path d="M88.4379595,458.723804 C88.5962514,458.58738 88.8355297,458.159674 88.9128351,458.314533 L108.169222,448.399867 C111.809934,446.559994 115.056757,445.402238 118.476597,443.680353 C121.859625,441.976903 124.856127,440.494681 128.493158,438.669557 C142.327129,431.741458 155.572107,425.543408 169.420802,418.604248 C183.074394,411.76464 196.127949,405.684579 209.774178,398.848658 L251,379.082006 C246.737164,360.760705 241.583476,350.66537 246.358,327.532377 C247.013254,324.376202 247.466043,323.30325 247.466043,319.793112 C239.783366,318.001171 217.224938,304.731226 211.224573,307.33802 L193.694672,315.490243 C188.062427,317.684079 182.106237,321.083604 176.021204,323.450735 C170.764442,325.500774 164.421725,328.91136 159.120789,331.300614 L97.5673495,359.027759 C94.4125563,360.635343 92.1412524,361.287963 89.0122276,362.843928 C80.6485284,367.003 49.3361934,379.98535 45.7691051,383.241078 C42.2609162,386.441498 22.5554224,437.847329 19.2570622,446.062233 C16.676537,452.496258 14.4714949,457.794649 11.8431141,464.306104 C6.21455066,478.269228 3.47941488,487.811495 15.0862562,502.106461 C16.496158,503.839407 19.8386927,506.2176 21.9811544,507.589209 C26.306571,510.358236 78.6938082,528.178088 87.6685876,531.17203 C94.353657,533.406425 99.7208548,535.493335 106.659927,537.812533 C118.380886,541.735629 119.091359,540.577874 134.949993,532.742743 L169.748429,517.157286 C174.475097,514.827026 173.289749,514.303455 175.134033,509.27791 C175.951261,507.039828 207.399801,417.310069 207.709022,413.593452 C204.418024,413.866298 195.789278,417.634535 192.693384,418.902905 L170.955865,427.221048 C168.250179,428.271877 165.713828,429.448069 163.424118,430.296106 C153.576893,433.92792 92.7596949,458.362466 88.4379595,458.723804 L88.4379595,458.723804 Z M88.4379595,458.723804 L86.6709808,459.608713 L88.4379595,458.723804 Z M86.6709808,459.608713 L84.9481766,460.626358 L86.6709808,459.608713 Z" id="Fill-11"></path>
                <path d="M602.688614,230.081566 C600.185302,232.25454 565.913148,248.44872 561.986745,250.411762 L459.649563,300.209695 C452.511988,303.774845 445.776271,306.934865 439,310.51843 C439.980679,314.73179 441.42589,319.324499 442.546667,323.766205 L445.160582,345.775852 C444.8214,350.125483 443.339321,365.343666 441.650783,368.857255 C444.084047,370.142624 447.232543,371.280673 449.743229,372.264036 C452.910159,373.505209 455.372917,374.676405 458.462425,375.928627 C461.175883,377.026163 463.760304,377.913768 466.709715,379.180722 C469.589077,380.421895 472.807622,381.696216 475.274066,383 C477.854801,381.637288 480.60144,380.786513 483.241162,379.464314 L499.765237,372.109349 C503.105444,370.521974 504.687066,369.785372 508.296407,368.256925 L641.056762,308.187087 C647.622888,304.533544 654.454461,283.444649 657.425992,275.920266 L667.649387,250.77638 C671.583164,240.920654 684.261944,214.277785 682.897841,205.707428 C681.662776,197.939967 678.540087,189.984673 673.489221,185.870755 C663.774599,177.955973 638.582944,170.538398 625.808308,166.325039 C616.458676,163.242362 576.14023,148.156767 572.066356,149.037006 L521.856324,171.429686 C518.217488,173.197529 516.952928,172.810813 515.592512,176.663238 L487.775882,257.597308 C485.965681,263.029743 483.705695,271.393851 481.467829,276.045488 L526.483212,259.136805 C531.423475,257.3174 536.618125,254.98974 541.76116,253.185066 L556.408671,247.491138 C562.355421,245.071403 599.400021,230.354108 602.688614,230.081566 L602.688614,230.081566 Z M604.45826,229.197644 L606.183666,228.181134 L604.45826,229.197644 Z M604.45826,229.197644 L602.688614,230.081566 L604.45826,229.197644 Z" id="Fill-13"></path>
                <path d="M461.573572,0 L467.076414,0 C475.396801,0.724118832 483.533514,4.60568983 487.493504,10.0347432 C494.046956,19.0145519 507.513859,54.9007049 513.387721,67.9274924 C515.588124,72.8051863 517.366078,78.0578046 519.562807,82.9207956 C529.257068,104.357654 529.584006,102.380111 525.612996,113.679305 L511.095483,152.087009 C500.839183,178.383182 489.89962,210.185599 479.52577,236.055388 L467.899269,266.769789 C464.266218,276.080413 465.40499,277.359567 459.931535,279.969335 L430.518143,292 C428.40223,290.448842 427.623457,288.364703 425.871216,286.063696 L411.357377,269.710373 C409.939421,268.306244 409.902687,268.343001 408.477384,267.295418 C405.119842,264.829003 404.322702,263.369738 399.378225,260.524723 L386.436626,253.18429 C387.883969,250.159164 389.059476,245.762991 390.293759,242.046828 L423.810405,145.01858 C426.436929,137.325277 428.427944,130.852316 431.054468,123.159013 L438.56302,101.564099 C440.190363,96.6790534 445.186268,84.1117321 445.505859,80.2779456 L402.831277,176.078499 C401.012914,180.56289 393.772525,195.104079 393.489669,198.48575 L391.726408,198.48575 C390.455391,193.027291 371.276258,156.163394 368.205245,149.683082 L345,101.446475 C347.358361,96.9878147 348.798357,91.3382175 350.895903,86.1774924 L356.799153,70.9121853 C366.39423,42.7818228 364.458316,45.420997 377.627669,38.8193857 L456.243382,1.04023162 C457.955214,0.507250755 459.747862,0.165407855 461.573572,0 L461.573572,0 Z M445.505859,80.2779456 L445.990755,78.3812689 L445.505859,80.2779456 Z" id="Fill-15"></path>
                <path d="M343.583878,416 C382.154294,416 416,384.715624 416,347.214056 C416,315.595304 401.781713,293.497085 374.791252,279.890549 C351.300169,268.05143 324.707114,272.247667 303.129464,286.533978 C300.64568,288.176463 300.428579,288.738656 298.187653,290.417885 C295.906251,292.12651 295.354298,292.479259 293.444544,294.500213 C291.53111,296.521168 291.435438,297.32955 289.496246,299.376225 C281.94922,307.346135 274.232929,325.490632 273.806086,336.62058 C273.438118,346.166835 272.301097,339.868805 273.622102,348.279651 C275.288998,358.924569 272.73162,356.752962 279.469115,373.31744 C289.21659,397.278612 317.498619,416 343.583878,416" id="Fill-17"></path>
            </g>
        </g>
    </g>
</svg>