<?xml version="1.0" encoding="UTF-8"?>
<svg width="250px" height="250px" viewBox="0 0 250 250" version="1.1" xmlns="http://www.w3.org/2000/svg" xmlns:xlink="http://www.w3.org/1999/xlink">
    <title>Group 19</title>
    <g id="Page-1" stroke="none" stroke-width="1" fill="none" fill-rule="evenodd">
        <g id="Call-center-(xidmetler)-sesi-qiymətləndir" transform="translate(71.000000, 69.000000)" fill="#F6F9FF">
            <g id="Group-19" transform="translate(-71.000000, -69.000000)">
                <path d="M165.867819,217.339628 L136.825266,158.297074 C134.632447,159.350266 129.496809,160.342287 126.934309,160.532447 C120.595213,161.008511 118.264096,159.630851 115.761436,159.575 C115.30266,160.440691 114.899734,161.531117 114.48617,162.44734 L110.655053,171.70133 L130.86383,216.279787 C131.435638,217.481915 131.701596,218.057713 132.254787,219.356915 L137.67234,231.173404 C138.721543,233.315691 139.567287,233.336968 142.843883,234.618883 C144.918351,235.430053 147.04867,236.307713 149.229521,237.169415 L167.560638,244.688032 C171.92633,246.442021 176.780053,247.707979 180.952926,243.912766 C183.893085,241.241223 184.256117,239.258511 185.455585,235.652128 C185.894415,234.332979 186.241489,233.559043 186.659043,232.38484 L191.035372,219.528457 C191.434309,218.406117 191.73883,217.769149 192.157713,216.501862 C192.564628,215.274468 192.92234,214.215957 193.273404,213.149468 C195.257447,207.142819 196.147074,208.051064 193.841223,203.407447 L191.193617,197.439362 C190.61516,196.267819 190.311968,195.483245 189.806649,194.359574 C188.92234,192.396809 187.9875,190.601596 187.123138,188.424734 C186.116489,185.88484 186.681649,186.564362 181.946277,184.985904 L168.85984,180.517819 C165.789362,179.493883 150.678989,174.052394 149.272074,173.935372 L165.867819,217.339628 Z M165.867819,217.339628 L166.23484,217.961968 L165.867819,217.339628 Z" id="Fill-1"></path>
                <path d="M29.9107713,88.0845745 L91.8256649,109.148404 C92.4360372,106.531383 97.6860372,99.6763298 99.2458777,98.3771277 L103.501197,94.9742021 C104.409441,94.3545213 104.959973,93.9914894 105.868218,93.5101064 L101.204654,82.2162234 C100.436037,80.6244681 100.131516,81.0632979 96.712633,79.6869681 L66.3389628,68.2521277 C64.0291223,67.4409574 61.8549202,66.462234 59.3948138,65.6218085 C57.062367,64.825266 54.9267287,64.0087766 52.6700798,63.0925532 C51.5610372,62.6417553 50.4839096,62.2428191 49.4227394,61.8704787 L42.7206117,59.3172872 C39.1807181,58.0739362 38.9280585,57.256117 35.7791223,58.5260638 C34.6009309,59.0021277 33.5105053,59.5273936 32.41875,59.9542553 C31.3469415,60.3731383 30.2804521,60.8226064 29.2738032,61.2760638 C23.6355053,63.8212766 10.4746011,68.9023936 6.18337766,71.0593085 C1.76316489,73.281383 -0.840558511,77.7973404 0.247207447,82.9609043 C0.73125,85.2614362 4.7206117,93.2361702 5.97460106,95.7441489 C8.01981383,99.8359043 9.98922872,104.088564 12.0384309,108.190957 C12.5424202,109.200266 12.9732713,110.073936 13.5277926,111.169681 C16.2285904,116.519415 14.400133,115.544681 20.9293883,118.129787 C23.0198138,118.956915 25.4121011,119.902394 27.6328457,120.681649 C38.3788564,124.459574 35.400133,124.913032 40.7618351,122.233511 L59.4839096,113.189628 C61.6488032,112.103191 63.580984,111.141755 65.6554521,110.105851 L70.3496011,107.780053 C71.5331117,107.293351 71.3708777,107.898404 71.7192819,106.595213 L50.7831117,97.531383 C48.9174202,96.7734043 47.569016,96.0593085 45.6767287,95.2973404 C43.8668883,94.5672872 42.0783245,93.5699468 40.3988032,92.9156915 C38.5051862,92.1763298 36.9160904,91.3159574 35.0610372,90.593883 C34.0730053,90.2095745 30.7432181,88.8093085 29.9107713,88.0845745 L29.9107713,88.0845745 Z M28.9533245,87.7654255 L28.2671543,87.5898936 L28.9533245,87.7654255 Z M29.9107713,88.0845745 C28.3948138,88.0845745 29.3057181,88.0912234 28.9533245,87.7654255 C30.4692819,87.7654255 29.5583777,87.7587766 29.9107713,88.0845745 L29.9107713,88.0845745 Z" id="Fill-3"></path>
                <path d="M82.8898936,30.9570479 L85.6598404,36.1658245 C86.0454787,36.9796543 86.1159574,37.3825798 86.5029255,38.1950798 L111.931117,90.31875 C113.471011,90.1897606 117.783511,88.3799202 122.141223,88.399867 C124.024202,88.4091755 126.396543,88.2695479 128.210372,88.4025266 C129.65984,88.5075798 131.959043,89.0461436 133.314096,89.3613032 C133.552128,88.344016 134.190426,87.0288564 134.546809,86.1246011 C135.000266,84.9743351 135.397872,84.0168883 135.867287,82.9783245 C136.319415,81.9796543 136.72766,80.8134309 137.145213,79.7868351 C137.629255,78.5966755 138.294149,77.5527926 137.85133,76.2256649 L124.90984,47.6605053 C124.306117,46.4743351 123.97234,45.4477394 123.423138,44.3586436 L114.907181,25.4291223 C113.97367,23.2296543 112.792819,21.2083777 111.97633,19.1046543 C110.767553,15.9969415 110.276862,15.8386968 107.190426,14.6352394 L80.8765957,3.92646277 C78.4417553,2.94242021 76.6944149,2.1831117 73.9297872,2.50492021 C71.0414894,2.8400266 69.1265957,3.73098404 67.4843085,5.3400266 C64.3526596,8.40917553 61.250266,19.5926862 59.3965426,25.0182181 C58.9577128,26.3054521 58.6452128,26.9264628 58.1944149,28.2841755 L54.6053191,38.737633 C53.2196809,42.8706117 53.8553191,42.3599734 55.2515957,45.8293883 L62.3446809,61.3945479 C63.0388298,62.8094415 62.6531915,62.355984 65.2954787,63.2323138 L99.8047872,74.9996011 L95.6106383,64.19375 C95.1744681,63.0860372 83.0069149,32.3652926 82.8898936,30.9570479 L82.8898936,30.9570479 Z M81.9324468,29.0421543 L82.0654255,29.1764628 C82.0640957,29.175133 82.0295213,29.1392287 82.0268617,29.1378989 C82.0215426,29.13125 81.9005319,29.0740691 81.9324468,29.0421543 L81.9324468,29.0421543 Z M82.8898936,30.9570479 L82.5228723,30.3347074 L82.8898936,30.9570479 Z" id="Fill-5"></path>
                <path d="M219.485239,160.850931 C217.253856,160.664761 159.123537,139.941356 157.251197,139.787101 C156.41609,141.364229 155.594282,142.913431 154.571676,144.446676 C152.195346,148.005186 150.704654,149.486569 147.598271,152.155452 C146.578324,153.033112 144.495878,154.761835 143.208644,155.10625 C143.307048,156.29641 146.751197,164.212633 147.704654,166.566356 C148.377527,168.225931 148.150133,167.400133 152.244548,169.047739 C153.517154,169.561037 154.502527,169.959973 155.699335,170.380186 L195.995878,185.615559 C198.401463,186.554388 200.35359,187.17141 202.761835,188.10492 C211.523803,191.507846 209.647473,191.776463 216.511835,188.833644 C217.72992,188.311037 218.433378,188.015824 219.672739,187.526463 L236.079654,180.636835 C241.580984,178.154122 250.695346,175.930718 248.73258,165.752527 C248.329654,163.664761 241.10625,149.200665 239.910771,146.807048 L236.930718,140.531782 C235.338963,137.377527 233.825665,133.011835 231.66609,132.073005 L221.499867,128.198005 C219.797739,127.506516 212.773803,124.486569 211.401463,124.974601 C206.763165,126.623537 186.586303,137.599601 180.038431,140.23258 C178.882846,140.699335 177.675399,141.152793 177.038431,142.021144 L187.698005,146.680718 C189.640824,147.462633 191.22859,148.245878 192.994548,149.04375 C193.816356,149.41609 194.767154,149.821676 195.678059,150.190027 C196.866888,150.674069 197.256516,150.926729 198.319016,151.378856 L216.932048,159.574335 C218.221941,160.220612 218.643484,160.118218 219.485239,160.850931 L219.485239,160.850931 Z M219.485239,160.850931 L220.17141,161.026463 L219.485239,160.850931 Z" id="Fill-7"></path>
                <path d="M88.3148936,218.61609 C88.4585106,216.891356 95.0555851,198.55758 96.0156915,195.67859 C97.1606383,192.238431 108.909309,158.820878 109.059574,157.021676 C105.969149,155.384707 102.845479,153.863431 100.200532,151.199867 C98.9279255,149.917952 97.6420213,148.858112 96.6101064,147.448537 L93.4212766,142.977793 C92.4385638,143.499069 91.5010638,143.882048 90.3268617,144.351463 L83.8042553,147.084176 C80.4106383,148.419282 81.1978723,148.007048 78.4651596,155.788963 L75.9119681,162.49109 C72.2351064,172.951197 66.7178191,185.847473 63.2244681,196.078856 L58.1167553,209.484441 C57.693883,210.987101 58.2111702,212.282314 58.6340426,213.191888 C59.112766,214.223803 59.6287234,215.356782 60.1021277,216.509707 C60.6047872,217.734441 60.8574468,218.523005 61.3986702,219.68125 L66.8893617,232.701197 C67.3827128,233.949867 67.7856383,234.844814 68.3109043,236.068218 C70.5382979,241.267686 71.0808511,244.596144 75.4784574,247.408644 C82.006383,251.586835 88.5635638,246.024335 95.7577128,242.973803 C97.8507979,242.085505 99.8547872,240.92859 101.930585,239.891356 L114.378723,233.827527 C117.001064,232.542952 116.517021,232.173271 118.095479,228.288963 L120.59016,221.528324 C121.255053,219.725133 124.373404,212.943218 123.955851,211.405984 L113.321543,189.460505 C112.245745,187.275665 111.318883,185.479122 110.228457,183.298271 C109.567553,181.975133 107.769681,177.818218 106.825532,177.126729 L90.8242021,213.465824 C90.4691489,214.378059 89.9890957,215.194548 89.6353723,216.105452 L88.3148936,218.61609 Z M87.6765957,220.211835 C87.7191489,219.695878 87.5901596,219.900665 87.7949468,219.372739 C88.2018617,218.331516 88.0396277,218.93258 88.3148936,218.61609 C88.2723404,219.132048 88.4013298,218.927261 88.1965426,219.455186 C87.7896277,220.49641 87.9518617,219.895346 87.6765957,220.211835 L87.6765957,220.211835 Z M87.6765957,220.211835 L87.5010638,220.898005 L87.6765957,220.211835 Z" id="Fill-9"></path>
                <path d="M31.8255319,165.637633 C31.8827128,165.588431 31.9691489,165.434176 31.9970745,165.490027 L38.9531915,161.914229 C40.2683511,161.250665 41.4412234,160.833112 42.6765957,160.212101 C43.8986702,159.597739 44.981117,159.063165 46.2949468,158.40492 C51.2922872,155.90625 56.0768617,153.670878 61.0795213,151.168218 C66.0117021,148.701463 70.7271277,146.508644 75.6566489,144.043218 L90.5489362,136.914229 C89.0090426,130.306516 87.1473404,126.665559 88.8720745,118.322473 C89.1087766,117.184176 89.2723404,116.797207 89.2723404,115.53125 C86.4970745,114.884973 78.3481383,110.099069 76.1805851,111.039229 L69.8481383,113.979388 C67.8135638,114.770612 65.6619681,115.996676 63.4638298,116.850399 C61.5648936,117.589761 59.2736702,118.819814 57.3587766,119.681516 L35.1234043,129.681516 C33.9837766,130.261303 33.1632979,130.496676 32.0329787,131.057846 C29.0117021,132.557846 17.7005319,137.240027 16.4119681,138.414229 C15.1446809,139.568484 8.02632979,158.108378 6.83484043,161.071144 C5.90265957,163.391622 5.10611702,165.302527 4.15664894,167.650931 C2.12340426,172.686835 1.13537234,176.128324 5.32819149,181.28391 C5.8375,181.90891 7.04494681,182.766622 7.81888298,183.261303 C9.38138298,184.259973 28.3055851,190.686835 31.5476064,191.766622 C33.9625,192.572473 35.9013298,193.325133 38.4079787,194.161569 C42.6420213,195.576463 42.8986702,195.15891 48.6273936,192.333112 L61.1978723,186.712101 C62.9053191,185.871676 62.4771277,185.682846 63.1433511,183.870346 C63.4385638,183.063165 74.7989362,150.701463 74.9106383,149.361037 C73.7218085,149.459441 70.6047872,150.818484 69.4864362,151.275931 L61.6340426,154.275931 C60.6566489,154.65492 59.7404255,155.079122 58.9132979,155.384973 C55.356117,156.694814 33.3867021,165.507314 31.8255319,165.637633 L31.8255319,165.637633 Z M31.8255319,165.637633 L31.187234,165.956782 L31.8255319,165.637633 Z M31.187234,165.956782 L30.5648936,166.323803 L31.187234,165.956782 Z" id="Fill-11"></path>
                <path d="M217.569814,82.9784574 C216.666888,83.7630319 204.305186,89.6101064 202.888963,90.318883 L165.976729,108.298936 C163.402261,109.58617 160.972739,110.727128 158.52859,112.021011 C158.882314,113.542287 159.40359,115.200532 159.807846,116.804255 L160.750665,124.751064 C160.628324,126.321543 160.09375,131.816223 159.484707,133.08484 C160.362367,133.548936 161.498005,133.95984 162.40359,134.314894 C163.545878,134.763032 164.434176,135.185904 165.548537,135.638032 C166.527261,136.034309 167.459441,136.354787 168.523271,136.812234 C169.561835,137.260372 170.722739,137.720479 171.612367,138.191223 C172.543218,137.699202 173.53391,137.392021 174.486037,136.914628 L180.446144,134.259043 C181.650931,133.685904 182.22141,133.419947 183.523271,132.868085 L231.40891,111.179255 C233.777261,109.860106 236.241356,102.245745 237.313165,99.5289894 L241.000665,90.4505319 C242.419548,86.8920213 246.992686,77.2723404 246.500665,74.1779255 C246.055186,71.3734043 244.928856,68.5010638 243.107048,67.0156915 C239.603059,64.1579787 230.516622,61.4797872 225.90891,59.9585106 C222.536569,58.8454787 207.994016,53.3986702 206.524601,53.7164894 L188.414229,61.8015957 C187.101729,62.4398936 186.645612,62.300266 186.15492,63.6912234 L176.121676,92.9132979 C175.46875,94.874734 174.65359,97.8946809 173.84641,99.5742021 L190.083112,93.4691489 C191.865027,92.812234 193.738697,91.9718085 195.59375,91.3202128 L200.876995,89.2643617 C203.021941,88.3906915 216.383644,83.0768617 217.569814,82.9784574 L217.569814,82.9784574 Z M218.208112,82.6593085 L218.830452,82.2922872 L218.208112,82.6593085 Z M218.208112,82.6593085 L217.569814,82.9784574 L218.208112,82.6593085 Z" id="Fill-13"></path>
                <path d="M166.897606,0.000132978723 L168.889628,0.000132978723 C171.901596,0.262101064 174.847074,1.66635638 176.280585,3.63045213 C178.652926,6.87912234 183.527926,19.8618351 185.654255,24.5746011 C186.450798,26.3392287 187.094415,28.2394947 187.889628,29.9988032 C191.398936,37.7541223 191.517287,37.0386968 190.079787,41.1264628 L184.824468,55.0214096 C181.111702,64.5347074 177.151596,76.0400266 173.396277,85.3990691 L169.1875,96.5107713 C167.87234,99.8791223 168.284574,100.341888 166.303191,101.286037 L155.655585,105.638431 C154.889628,105.077261 154.607713,104.323271 153.973404,103.490824 L148.719415,97.5746011 C148.206117,97.0666223 148.192819,97.0799202 147.676862,96.7009309 C146.461436,95.8086436 146.172872,95.2807181 144.382979,94.2514628 L139.698138,91.5958777 C140.222074,90.5014628 140.647606,88.9110372 141.094415,87.5666223 L153.227394,52.4642287 C154.178191,49.680984 154.898936,47.3392287 155.849734,44.555984 L158.567819,36.743484 C159.156915,34.9761968 160.965426,30.4296543 161.081117,29.0426862 L145.632979,63.7009309 C144.974734,65.3232713 142.353723,70.5839096 142.25133,71.8073138 L141.613032,71.8073138 C141.152926,69.8325798 134.210106,56.4961436 133.098404,54.1517287 L124.698138,36.7009309 C125.551862,35.0878989 126.073138,33.044016 126.832447,31.1769947 L128.969415,25.6543883 C132.442819,15.4775266 131.742021,16.4323138 136.509309,14.044016 L164.968085,0.376462766 C165.587766,0.183643617 166.236702,0.0599734043 166.897606,0.000132978723 L166.897606,0.000132978723 Z M161.081117,29.0426862 L161.256649,28.356516 L161.081117,29.0426862 Z" id="Fill-15"></path>
                <path d="M124.060106,150.319016 C137.998936,150.319016 150.230319,138.997207 150.230319,125.425399 C150.230319,113.98258 145.092021,105.985239 135.338032,101.061037 C126.84867,96.7764628 117.238298,98.2950798 109.440426,103.465293 C108.542819,104.059707 108.464362,104.263165 107.654521,104.870878 C106.830053,105.489229 106.630585,105.616888 105.940426,106.348271 C105.248936,107.079654 105.214362,107.372207 104.513564,108.112899 C101.78617,110.997207 98.9976064,117.563697 98.8433511,121.591622 C98.7103723,125.04641 98.2994681,122.767154 98.7768617,125.811037 C99.3792553,129.663431 98.4550532,128.877527 100.889894,134.872207 C104.4125,143.54375 114.633245,150.319016 124.060106,150.319016" id="Fill-17"></path>
            </g>
        </g>
    </g>
</svg>